<?xml version="1.0" standalone="no"?>
<!DOCTYPE svg PUBLIC "-//W3C//DTD SVG 20010904//EN"
 "http://www.w3.org/TR/2001/REC-SVG-20010904/DTD/svg10.dtd">
<svg version="1.0" xmlns="http://www.w3.org/2000/svg"
 width="700.000000pt" height="700.000000pt" viewBox="0 0 700.000000 700.000000"
 preserveAspectRatio="xMidYMid meet">
<metadata>
Created by potrace 1.11, written by Peter Selinger 2001-2013
</metadata>
<g transform="translate(0.000000,700.000000) scale(0.100000,-0.100000)"
fill="#000000" stroke="none">
<path d="M0 3500 l0 -3500 235 0 235 0 0 300 0 300 1208 0 1208 0 -1 -288 c0
-158 1 -293 3 -299 3 -10 424 -13 2058 -13 l2054 0 0 3500 0 3500 -3500 0
-3500 0 0 -3500z m5940 -104 c259 -50 468 -176 590 -356 103 -152 161 -327
164 -500 l1 -65 -302 0 c-297 0 -303 0 -304 20 -8 216 -86 348 -234 397 -53
17 -171 18 -227 1 -101 -29 -182 -109 -210 -207 -17 -58 -14 -193 5 -236 57
-129 199 -229 507 -355 454 -185 674 -402 746 -735 33 -158 20 -403 -31 -545
-71 -195 -233 -357 -442 -439 -228 -89 -539 -98 -809 -22 -79 22 -241 105
-313 160 -231 177 -356 432 -365 746 l-1 35 308 0 307 1 2 -56 c0 -30 2 -59 3
-65 0 -5 5 -32 9 -60 4 -27 11 -54 15 -60 4 -5 13 -28 20 -50 18 -54 73 -119
124 -149 99 -58 304 -74 404 -33 114 48 161 126 170 283 15 249 -71 348 -431
504 -227 98 -237 103 -321 149 -222 121 -369 264 -455 443 -59 122 -80 234
-76 388 2 69 6 134 9 145 44 181 102 289 217 403 98 98 275 202 385 227 172
39 205 42 350 40 83 -1 166 -6 185 -9z m-1654 -1541 l0 -1515 -306 1 -306 1 0
1514 0 1514 306 0 306 0 0 -1515z"/>
</g>
</svg>
