<?xml version="1.0" encoding="UTF-8" standalone="no"?>
<svg
   xmlns:dc="http://purl.org/dc/elements/1.1/"
   xmlns:cc="http://creativecommons.org/ns#"
   xmlns:rdf="http://www.w3.org/1999/02/22-rdf-syntax-ns#"
   xmlns:svg="http://www.w3.org/2000/svg"
   xmlns="http://www.w3.org/2000/svg"
   xmlns:sodipodi="http://sodipodi.sourceforge.net/DTD/sodipodi-0.dtd"
   xmlns:inkscape="http://www.inkscape.org/namespaces/inkscape"
   width="10.583331mm"
   height="10.583331mm"
   viewBox="0 0 10.583331 10.583331"
   version="1.1"
   id="svg3843"
   sodipodi:docname="icon_whs.svg"
   inkscape:version="0.92.1 r">
  <sodipodi:namedview
     pagecolor="#ffffff"
     bordercolor="#666666"
     borderopacity="1"
     objecttolerance="10"
     gridtolerance="10"
     guidetolerance="10"
     inkscape:pageopacity="0"
     inkscape:pageshadow="2"
     inkscape:window-width="698"
     inkscape:window-height="480"
     id="namedview29"
     showgrid="false"
     inkscape:zoom="5.9000012"
     inkscape:cx="42.711855"
     inkscape:cy="19.999996"
     inkscape:window-x="407"
     inkscape:window-y="196"
     inkscape:window-maximized="0"
     inkscape:current-layer="svg3843" />
  <defs
     id="defs3837" />
  <metadata
     id="metadata3840">
    <rdf:RDF>
      <cc:Work
         rdf:about="">
        <dc:format>image/svg+xml</dc:format>
        <dc:type
           rdf:resource="http://purl.org/dc/dcmitype/StillImage" />
        <dc:title />
      </cc:Work>
    </rdf:RDF>
  </metadata>
  <path
     style="fill:#f07a2a;fill-opacity:1;stroke-width:0.08777106"
     d="M 0 0 L 0 40 L 40 40 L 40 0 L 0 0 z M 20.017578 5.9960938 C 27.720805 5.9960938 33.988281 12.26357 33.988281 19.966797 C 33.988281 27.670025 27.720805 33.9375 20.017578 33.9375 C 17.617303 33.9375 15.266709 33.322903 13.1875 32.15625 L 6.0117188 34.003906 L 7.9707031 27.044922 C 6.7107496 24.904449 6.046875 22.468623 6.046875 19.966797 C 6.046875 12.26357 12.314351 5.9960937 20.017578 5.9960938 z M 20.017578 8.3671875 C 13.621086 8.3671875 8.4179688 13.570305 8.4179688 19.966797 C 8.4179688 22.195568 9.0517491 24.360637 10.25 26.226562 L 10.537109 26.673828 L 9.4082031 30.681641 L 13.554688 29.615234 L 13.982422 29.875 C 15.795245 30.981705 17.882108 31.566406 20.017578 31.566406 C 26.41407 31.566406 31.619141 26.363289 31.619141 19.966797 C 31.619141 13.570305 26.41407 8.3671875 20.017578 8.3671875 z M 15.1875 13.416016 L 16.09375 13.464844 C 16.272188 13.474587 16.429695 13.585517 16.5 13.75 L 17.820312 16.837891 C 17.89088 17.002901 17.861578 17.194295 17.744141 17.330078 L 16.59375 18.660156 C 16.500625 18.768027 16.485129 18.92235 16.550781 19.048828 C 18.064656 21.964934 20.822841 23.118734 21.646484 23.408203 C 21.786918 23.45753 21.94236 23.41271 22.033203 23.294922 L 23.236328 21.734375 C 23.370091 21.561027 23.605798 21.50407 23.804688 21.595703 L 26.869141 23.007812 C 27.068732 23.099796 27.176852 23.316386 27.130859 23.53125 L 26.986328 24.208984 C 26.823074 24.971715 26.370033 25.646071 25.712891 26.066406 C 24.883191 26.597158 23.808441 26.857247 22.441406 26.470703 C 18.199167 25.271136 15.80101 22.462453 14.513672 20.707031 C 13.226334 18.95161 12.728925 17.197237 13.050781 15.763672 C 13.26661 14.802228 13.968734 14.063269 14.408203 13.681641 C 14.623418 13.494688 14.902771 13.40048 15.1875 13.416016 z "
     transform="scale(0.26458333)"
     id="rect4707" />
</svg>
