<?xml version="1.0" encoding="UTF-8" standalone="no"?>
<svg
   xmlns:dc="http://purl.org/dc/elements/1.1/"
   xmlns:cc="http://creativecommons.org/ns#"
   xmlns:rdf="http://www.w3.org/1999/02/22-rdf-syntax-ns#"
   xmlns:svg="http://www.w3.org/2000/svg"
   xmlns="http://www.w3.org/2000/svg"
   id="svg3843"
   version="1.1"
   viewBox="0 0 10.58333 10.583517"
   height="10.583517mm"
   width="10.58333mm">
  <defs
     id="defs3837" />
  <metadata
     id="metadata3840">
    <rdf:RDF>
      <cc:Work
         rdf:about="">
        <dc:format>image/svg+xml</dc:format>
        <dc:type
           rdf:resource="http://purl.org/dc/dcmitype/StillImage" />
        <dc:title></dc:title>
      </cc:Work>
    </rdf:RDF>
  </metadata>
  <g
     transform="translate(8.3154745,-38.464194)"
     id="layer1">
    <path
       id="path4878"
       d="m -8.3154745,38.464194 v 10.583517 h 10.58333 V 38.464194 Z m 1.9030301,2.481401 h 6.77745028 c 0.1329299,0 0.24085,0.108012 0.24085,0.240848 v 0.433822 c 0,0.02857 -0.024101,0.04299 -0.0475,0.05892 -0.019299,0.0132 -0.0708,0.04182 -0.0902,0.05266 l -3.45455028,2.032296 c -0.009,0.0056 -0.02,0.0083 -0.0306,0.0083 -0.010401,0 -0.020799,-0.0024 -0.03,-0.0077 l -3.56227,-2.034875 c -0.0198,-0.01037 -0.0442,-0.03603 -0.0442,-0.05837 v -0.484827 c 0,-0.13293 0.1081,-0.241032 0.24103,-0.241032 z m 6.95791018,1.449141 c 0.010501,-1.06e-4 0.020899,0.0026 0.0304,0.0081 0.018701,0.01075 0.03,0.03061 0.03,0.05229 v 3.257898 c 0,0.02489 -0.014999,0.04702 -0.0381,0.05616 -0.007,0.0026 -0.0146,0.0041 -0.022101,0.0041 -0.0166,0 -0.0324,-0.0066 -0.044,-0.01915 L -1.4536648,43.646342 c -0.0122,-0.01329 -0.018,-0.03171 -0.015499,-0.04972 0.003,-0.0181 0.0136,-0.03404 0.0293,-0.04309 l 1.95495988,-1.15029 c 0.009,-0.0054 0.019899,-0.0084 0.0304,-0.0085 z m -7.13891018,0.04732 c 0.0104,-7.3e-5 0.0207,0.0026 0.0298,0.0079 l 2.05218,1.172018 c 0.0166,0.0096 0.0277,0.02644 0.0298,0.04548 0.00201,0.01895 -0.005,0.03809 -0.019201,0.05101 l -2.05145,1.903219 c -0.0113,0.01056 -0.0261,0.0162 -0.0409,0.0162 -0.008,0 -0.0166,-0.0017 -0.0243,-0.0052 -0.0219,-0.0095 -0.0361,-0.0312 -0.0361,-0.05506 v -3.075421 c 0,-0.0214 0.0113,-0.04118 0.0298,-0.05193 0.009,-0.0054 0.0198,-0.0082 0.0302,-0.0083 z m 4.5547602,1.478786 c 0.0132,0.002 0.025699,0.0084 0.0353,0.01878 l 2.34293018,2.525595 c 0.016399,0.01754 0.020899,0.04294 0.0112,0.06481 -0.009,0.02206 -0.0312,0.03646 -0.0553,0.03646 H -6.412584 c -0.04,0 -0.0793,-0.01141 -0.12005,-0.03535 -0.0165,-0.0095 -0.0275,-0.02653 -0.0296,-0.04548 -0.002,-0.01895 0.005,-0.03781 0.0188,-0.05082 l 2.6189496,-2.429107 c 0.019201,-0.01791 0.0479,-0.02102 0.0707,-0.0081 l 0.6897701,0.394049 c 0.0926,0.05259 0.21034,0.05209 0.3023499,-0.002 l 0.78368,-0.461074 c 0.0122,-0.0072 0.026001,-0.0097 0.0392,-0.0077 z"
       style="opacity:1;fill:#f07a2a;fill-opacity:1;stroke:none;stroke-width:0.13469875;stroke-linecap:round;stroke-linejoin:round;stroke-miterlimit:4;stroke-dasharray:none;stroke-dashoffset:0;stroke-opacity:1" />
  </g>
</svg>
